{
    "asset" : {
        "generator" : "Khronos glTF Blender I/O v1.4.40",
        "version" : "2.0"
    },
    "scene" : 0,
    "scenes" : [
        {
            "name" : "Scene",
            "nodes" : [
                0
            ]
        }
    ],
    "nodes" : [
        {
            "mesh" : 0,
            "name" : "Events.003",
            "rotation" : [
                0.5,
                -0.5,
                0.5,
                0.4999999701976776
            ],
            "scale" : [
                1.4008188247680664,
                1.8455543518066406,
                1.8455543518066406
            ]
        }
    ],
    "materials" : [
        {
            "doubleSided" : true,
            "name" : "Material.004",
            "pbrMetallicRoughness" : {
                "baseColorFactor" : [
                    0.0802198275923729,
                    0.05126948654651642,
                    0.24228115379810333,
                    1
                ],
                "metallicFactor" : 0,
                "roughnessFactor" : 0.5
            }
        }
    ],
    "meshes" : [
        {
            "name" : "Events.001",
            "primitives" : [
                {
                    "attributes" : {
                        "POSITION" : 0,
                        "NORMAL" : 1,
                        "TEXCOORD_0" : 2
                    },
                    "indices" : 3,
                    "material" : 0
                }
            ]
        }
    ],
    "accessors" : [
        {
            "bufferView" : 0,
            "componentType" : 5126,
            "count" : 18872,
            "max" : [
                79.6199951171875,
                1,
                0.17999999225139618
            ],
            "min" : [
                1.4999998807907104,
                -1,
                -13.639999389648438
            ],
            "type" : "VEC3"
        },
        {
            "bufferView" : 1,
            "componentType" : 5126,
            "count" : 18872,
            "type" : "VEC3"
        },
        {
            "bufferView" : 2,
            "componentType" : 5126,
            "count" : 18872,
            "type" : "VEC2"
        },
        {
            "bufferView" : 3,
            "componentType" : 5123,
            "count" : 48684,
            "type" : "SCALAR"
        }
    ],
    "bufferViews" : [
        {
            "buffer" : 0,
            "byteLength" : 226464,
            "byteOffset" : 0
        },
        {
            "buffer" : 0,
            "byteLength" : 226464,
            "byteOffset" : 226464
        },
        {
            "buffer" : 0,
            "byteLength" : 150976,
            "byteOffset" : 452928
        },
        {
            "buffer" : 0,
            "byteLength" : 97368,
            "byteOffset" : 603904
        }
    ],
    "buffers" : [
        {
            "byteLength" : 701272,
            "uri" : "data:application/octet-stream;base64,"
        }
    ]
}
